<?xml version="1.0" encoding="utf-8"?>
<!-- Generator: Adobe Illustrator 21.0.0, SVG Export Plug-In . SVG Version: 6.00 Build 0)  -->
<svg version="1.1" id="Layer_1" xmlns="http://www.w3.org/2000/svg" xmlns:xlink="http://www.w3.org/1999/xlink" x="0px" y="0px"
	 viewBox="0 0 832.8 167.7" style="enable-background:new 0 0 832.8 167.7;" xml:space="preserve">
<style type="text/css">
	.st0{fill:#FFFF00;stroke:#501A00;stroke-width:3;stroke-miterlimit:10;}
</style>
<path class="st0" d="M162.8,16.1L180.7,159l-19.4,2.4L147.6,52.4l-44.4,97.3l-8.9-4.1l-9,3.9L40.5,47.8L21,159.2l-19.3-3.4
	L26.8,12.6l11.5-5l7.1,2.7l49.1,111.4l49.4-108.5l12.5-4L162.8,16.1z M277.1,91.2l-0.6-19.6l-66.4,1.9l64.5-53.4L262.2,5.1
	l-86.5,71.5l-0.5,5.6l0,9l77.9,74.4l13.5-14.2l-61-58.2L277.1,91.2z M424.5,8.6l-10.3,3.3l-40,107.6L341,14l-9.3,2.9l-9.2-3.4
	l-53.9,145.1l18.4,6.8l44-118.3L364,152.5l9.4-2.9l9.2,3.4L421,49.6l24,106.8l19.1-4.3l-31.3-139L424.5,8.6z M617,86.3l-4.2,7.5
	L548,163.5l-0.1-0.6l-13.4,1.3l-79.3-67.9l-0.4-6l0.1-8.6l76.9-71.7l0-0.2l13.7,0.5l67.2,69.8L617,86.3z M592.2,87.2L538.1,31
	l-61.8,57.7l63.8,54.6L592.2,87.2z M650.7,95.8l89.3,53.2l-13.6,14.2l-89.1-52.5l-5.5,47.7l-19.5-2.2l17-148l6-4.6l9.9-1.8
	l61.6,50.1l8.5,6.8L705.1,68L650.7,95.8z M682.8,57.4l-36-29.3l-5.8,50.7L682.8,57.4z M830.7,23.9l-15.4-12.1l-49.2,62.4l-40.5-62.4
	l-23-0.4l53,82.7l2.2,71.4l19.6-0.6l-2.2-70.6L830.7,23.9z"/>
</svg>
