<?xml version="1.0" encoding="iso-8859-1"?>
<!-- Generator: Adobe Illustrator 19.0.0, SVG Export Plug-In . SVG Version: 6.00 Build 0)  -->
<svg version="1.1" id="Capa_1" xmlns="http://www.w3.org/2000/svg" xmlns:xlink="http://www.w3.org/1999/xlink" x="0px" y="0px"
	 viewBox="0 0 511.998 511.998" style="enable-background:new 0 0 511.998 511.998;" xml:space="preserve">
<g>
	<polygon style="fill:#C7A87E;" points="86.336,461.021 30.567,446.077 10,466.644 45.356,501.999 	"/>
	<polygon style="fill:#947C6B;" points="30.567,446.077 86.336,461.021 123.746,423.607 67.977,408.664 	"/>
	<polygon style="fill:#C7A87E;" points="67.977,408.664 123.746,423.607 148.168,399.188 144.631,395.653 116.346,367.368 
		112.813,363.834 	"/>
	<path style="fill:#FFBA50;" d="M116.346,367.368l28.285,28.285l129.672-129.671c-4.02-5.237-8.428-10.272-13.221-15.067
		c-4.793-4.794-9.828-9.198-15.066-13.217L116.346,367.368z"/>
	<path style="fill:#B2B1B1;" d="M261.082,250.915c4.793,4.795,9.201,9.83,13.221,15.067c3.518,4.586,6.74,9.324,9.662,14.194
		L392.36,171.78c-4.869-2.921-9.607-6.144-14.191-9.664c-5.236-4.016-10.273-8.425-15.066-13.218
		c-4.795-4.795-9.203-9.829-13.217-15.067c-3.521-4.582-6.744-9.32-9.664-14.19L231.826,228.035
		C242.252,234.301,252.092,241.927,261.082,250.915z"/>
	<g>
		<path style="fill:#E4E5E5;" d="M231.826,228.035L340.221,119.64C320.198,86.328,314.09,46.994,321.883,10
			c-46.397-0.129-92.828,17.492-128.225,52.889c-39.42,39.417-56.799,92.52-52.164,144.017
			C172.57,204.429,204.26,211.468,231.826,228.035z"/>
		<path style="fill:#E4E5E5;" d="M392.36,171.78L283.965,280.177c16.566,27.563,23.605,59.255,21.127,90.328
			c51.496,4.635,104.6-12.746,144.016-52.164c35.398-35.398,53.02-81.83,52.891-128.224
			C465.006,197.907,425.672,191.8,392.36,171.78z"/>
	</g>
	<path style="fill:#FFBA50;" d="M363.102,148.898c4.793,4.793,9.83,9.202,15.066,13.218l26.701-26.7l-14.145-14.143l-14.141-14.142
		l-26.703,26.701C353.899,139.069,358.307,144.104,363.102,148.898z"/>
	<path style="fill:#E4E5E5;" d="M390.725,121.273l14.145,14.143l21.215-21.212c9.418,9.418,15.641,15.704,29.609,19.445
		c17.244-29.87,27.4-77.291,27.4-104.744c-27.449,0-74.873,10.156-104.744,27.4c3.742,13.97,10.031,20.195,19.447,29.61
		l-21.213,21.216L390.725,121.273z"/>
</g>
<g>
	<path style="fill:#000001;" d="M508.289,182.343c-2.34-1.893-5.408-2.631-8.352-2.011c-9.643,2.031-19.537,3.061-29.406,3.061
		c-26.016,0-50.961-6.952-72.715-19.975c-0.103-0.067-0.199-0.145-0.307-0.209c-1.305-0.783-2.594-1.592-3.873-2.418l18.305-18.304
		c0.002-0.004,0.006-0.008,0.008-0.011l14.225-14.221c7.084,6.532,14.518,11.728,26.932,15.054c4.373,1.169,8.986-0.74,11.248-4.66
		c17.988-31.155,28.74-80.266,28.742-109.745c0-2.652-1.053-5.196-2.928-7.072c-1.877-1.875-4.42-2.929-7.072-2.929
		c-29.477,0.002-78.586,10.754-109.746,28.742c-3.92,2.263-5.83,6.877-4.658,11.249c3.326,12.416,8.522,19.85,15.053,26.932
		l-14.232,14.232c-0.002,0.002-0.002,0.004-0.004,0.005l-18.293,18.293c-0.105-0.165-0.217-0.326-0.322-0.491
		c-0.4-0.624-0.785-1.257-1.174-1.888c-18.953-30.651-25.686-67.665-18.051-103.916c0.619-2.944-0.119-6.012-2.012-8.351
		s-4.738-3.702-7.746-3.71l-0.532,0c-50.926,0-98.797,19.823-134.791,55.818c-40.076,40.074-60.141,95.471-55.053,151.985
		c0.492,5.461,5.287,9.51,10.754,9.071c3.764-0.301,7.586-0.452,11.363-0.452c26.004,0,50.938,6.945,72.684,19.954
		c0.115,0.075,0.223,0.16,0.34,0.231c1.305,0.783,2.594,1.591,3.871,2.417L115.391,354.181c-3.334-0.888-7.035-0.032-9.652,2.582
		L2.93,459.572c-3.906,3.905-3.906,10.237,0,14.142l35.355,35.355c1.875,1.875,4.418,2.929,7.07,2.929s5.195-1.054,7.072-2.929
		l102.811-102.811c1.875-1.875,2.93-4.419,2.93-7.071c0-0.879-0.127-1.742-0.35-2.577l115.141-115.142
		c16.725,25.937,24.668,56.849,22.166,88.242c-0.435,5.465,3.611,10.262,9.072,10.754c5.693,0.513,11.479,0.772,17.195,0.772
		c50.92,0,98.789-19.826,134.789-55.826c36.137-36.138,55.959-84.196,55.816-135.321
		C511.99,187.081,510.627,184.235,508.289,182.343z M472.654,39.345c-1.893,24.192-9.783,57.737-21.746,82.025
		c-6.572-3.056-10.959-7.443-17.586-14.069l-0.168-0.168c-1.953-1.952-4.512-2.929-7.07-2.929s-5.119,0.977-7.07,2.929
		l-14.145,14.142l-14.142-14.145l14.142-14.143c1.875-1.875,2.928-4.419,2.928-7.071s-1.053-5.195-2.928-7.071l-0.172-0.172
		c-6.625-6.623-11.012-11.01-14.066-17.582C414.92,49.129,448.465,41.238,472.654,39.345z M376.584,121.273l14.143,14.143
		L377.5,148.642c-0.141-0.122-0.285-0.242-0.426-0.365c-0.834-0.732-1.656-1.478-2.475-2.23c-0.229-0.21-0.461-0.416-0.688-0.627
		c-0.16-0.149-0.322-0.298-0.482-0.448c-1.102-1.034-2.191-2.081-3.258-3.146c-0.004-0.004-0.006-0.007-0.01-0.01
		c-1.102-1.103-2.185-2.229-3.254-3.369c-0.297-0.316-0.584-0.642-0.877-0.96c-0.086-0.094-0.17-0.188-0.256-0.282
		c-0.68-0.743-1.357-1.487-2.022-2.244c-0.135-0.152-0.264-0.309-0.396-0.462L376.584,121.273z M230.168,215.553
		c-23.25-12.496-49.371-19.13-76.516-19.13c-0.93,0-1.859,0.008-2.793,0.023c-1.623-47.232,16.264-92.88,49.871-126.485
		c29.516-29.516,67.951-46.883,109.242-49.589c-4.475,33.981,1.906,68.003,17.791,97.583L230.168,215.553z M45.356,487.857
		l-21.213-21.214l9.414-9.413l33.459,8.966L45.356,487.857z M83.346,449.867L49.885,440.9l21.084-21.082l33.461,8.966
		L83.346,449.867z M120.758,412.454l-33.461-8.966l25.514-25.513l21.215,21.213L120.758,412.454z M144.633,381.512l-14.145-14.143
		l116.197-116.196c0.129,0.113,0.262,0.224,0.391,0.337c0.859,0.751,1.703,1.518,2.543,2.289c0.236,0.217,0.475,0.429,0.709,0.646
		c0.135,0.125,0.27,0.249,0.402,0.374c1.104,1.035,2.193,2.081,3.26,3.146c0.006,0.006,0.014,0.013,0.02,0.02
		c1.082,1.084,2.144,2.191,3.195,3.311c0.236,0.252,0.465,0.507,0.699,0.76c0.074,0.079,0.147,0.16,0.219,0.239
		c0.729,0.793,1.449,1.592,2.16,2.4c0.182,0.207,0.363,0.415,0.543,0.623L144.633,381.512z M285.58,264.419
		c-1.045-1.465-2.123-2.908-3.217-4.338c-0.045-0.062-0.084-0.125-0.129-0.186c-0.096-0.125-0.199-0.247-0.295-0.372
		c-0.904-1.171-1.824-2.331-2.76-3.477c-0.01-0.011-0.018-0.022-0.027-0.032c-0.014-0.018-0.029-0.035-0.043-0.053
		c-0.178-0.217-0.357-0.431-0.537-0.646c-0.592-0.717-1.188-1.43-1.793-2.137c-0.219-0.256-0.441-0.511-0.662-0.766
		c-0.15-0.174-0.301-0.349-0.451-0.521c-0.094-0.108-0.186-0.217-0.281-0.324c-0.365-0.416-0.734-0.828-1.105-1.24
		c-0.277-0.31-0.555-0.619-0.836-0.928c-0.44-0.482-0.881-0.962-1.326-1.439c-0.182-0.195-0.363-0.388-0.547-0.582
		c-0.252-0.268-0.502-0.538-0.758-0.805c-0.875-0.919-1.76-1.83-2.658-2.729c-0.875-0.875-1.762-1.737-2.656-2.592
		c-0.287-0.275-0.58-0.546-0.869-0.818c-0.209-0.197-0.42-0.394-0.629-0.59c-0.383-0.356-0.766-0.713-1.15-1.064
		c-0.482-0.442-0.969-0.878-1.457-1.314c-0.309-0.275-0.617-0.552-0.928-0.825c-0.096-0.084-0.191-0.167-0.289-0.251
		c-0.576-0.506-1.156-1.008-1.74-1.504c-0.199-0.169-0.398-0.336-0.598-0.504c-3.322-2.802-6.74-5.46-10.246-7.968l91.014-91.017
		c0.566,0.794,1.143,1.58,1.725,2.363c0.25,0.338,0.504,0.674,0.758,1.011c0.242,0.321,0.488,0.641,0.732,0.96
		c0.045,0.062,0.082,0.126,0.129,0.187c0.098,0.128,0.203,0.252,0.301,0.379c0.275,0.356,0.553,0.712,0.832,1.066
		c0.309,0.393,0.621,0.785,0.934,1.176c0.336,0.42,0.672,0.84,1.012,1.256c0.229,0.279,0.461,0.556,0.691,0.834
		c0.055,0.065,0.109,0.131,0.164,0.196c0.264,0.319,0.525,0.641,0.793,0.957c0.551,0.652,1.109,1.297,1.67,1.94
		c0.176,0.203,0.352,0.41,0.529,0.613c0.148,0.169,0.299,0.337,0.447,0.505c0.242,0.273,0.49,0.543,0.734,0.815
		c0.637,0.707,1.277,1.41,1.926,2.107c0.176,0.189,0.35,0.379,0.525,0.567c0.191,0.203,0.385,0.405,0.578,0.607
		c0.969,1.02,1.947,2.033,2.943,3.029v0.001l0,0c0.002,0.001,0.002,0.001,0.002,0.002c0.879,0.88,1.771,1.746,2.67,2.605
		c0.281,0.268,0.564,0.531,0.848,0.797c0.213,0.201,0.426,0.401,0.641,0.602c0.389,0.361,0.777,0.724,1.168,1.081
		c0.461,0.421,0.924,0.837,1.389,1.252c0.318,0.284,0.637,0.57,0.957,0.853c0.121,0.105,0.242,0.211,0.363,0.316
		c0.543,0.475,1.088,0.945,1.637,1.413c0.242,0.206,0.486,0.41,0.73,0.615c3.297,2.776,6.686,5.411,10.162,7.898L285.58,264.419z
		 M442.039,311.27c-33.594,33.593-78.729,51.492-126.484,49.868c0.478-27.863-6.215-55.094-19.158-79.251l97.623-97.624
		c23.25,12.495,49.369,19.129,76.512,19.13c0,0,0,0,0.002,0c7.045,0,14.104-0.461,21.096-1.373
		C488.93,243.311,471.57,281.737,442.039,311.27z"/>
	<path style="fill:#000001;" d="M204.875,111.472c-4.74-2.838-10.881-1.296-13.717,3.442l-0.195,0.337
		c-2.789,4.768-1.184,10.893,3.584,13.681c1.586,0.929,3.324,1.369,5.037,1.369c3.438,0,6.783-1.773,8.643-4.953l0.09-0.159
		C211.154,120.45,209.613,114.309,204.875,111.472z"/>
	<path style="fill:#000001;" d="M448.086,252.23c-4.809-2.716-10.912-1.012-13.627,3.797l-0.148,0.257
		c-2.703,4.816-0.99,10.91,3.826,13.614c1.547,0.869,3.228,1.281,4.885,1.281c3.5,0,6.896-1.84,8.73-5.107l0.129-0.224
		C454.596,261.039,452.897,254.945,448.086,252.23z"/>
	<path style="fill:#000001;" d="M282.399,45.117c-25.508,6.834-48.859,20.315-67.529,38.987c-2.26,2.262-4.471,4.619-6.574,7.008
		c-3.65,4.146-3.248,10.464,0.896,14.113c1.9,1.674,4.258,2.495,6.605,2.495c2.773,0,5.533-1.147,7.51-3.393
		c1.826-2.074,3.746-4.121,5.707-6.084c16.189-16.19,36.439-27.882,58.561-33.809c5.334-1.43,8.5-6.913,7.07-12.247
		C293.217,46.854,287.731,43.685,282.399,45.117z"/>
	<path style="fill:#000001;" d="M433.569,275.996c-4.148-3.646-10.467-3.239-14.113,0.91c-1.82,2.07-3.736,4.114-5.703,6.078
		c-16.191,16.193-36.441,27.885-58.559,33.811c-5.336,1.43-8.502,6.912-7.072,12.247c1.197,4.468,5.238,7.415,9.654,7.415
		c0.855,0,1.727-0.111,2.594-0.344c25.504-6.833,48.855-20.314,67.521-38.984c2.268-2.264,4.484-4.626,6.588-7.02
		C438.123,285.96,437.717,279.642,433.569,275.996z"/>
</g>
<g>
</g>
<g>
</g>
<g>
</g>
<g>
</g>
<g>
</g>
<g>
</g>
<g>
</g>
<g>
</g>
<g>
</g>
<g>
</g>
<g>
</g>
<g>
</g>
<g>
</g>
<g>
</g>
<g>
</g>
</svg>
