<?xml version="1.0" encoding="utf-8"?>
<!-- Generator: Adobe Illustrator 21.0.0, SVG Export Plug-In . SVG Version: 6.00 Build 0)  -->
<svg version="1.1" id="Layer_1" xmlns="http://www.w3.org/2000/svg" xmlns:xlink="http://www.w3.org/1999/xlink" x="0px" y="0px"
	 viewBox="0 0 1400.2 53.3" style="enable-background:new 0 0 1400.2 53.3;" xml:space="preserve">
<style type="text/css">
	.st0{fill-rule:evenodd;clip-rule:evenodd;fill:#020202;}
</style>
<g>
	<g>
		<g>
			<polygon class="st0" points="0,0 26.1,0 26.1,0 52.2,0 52.2,0 78.4,0 78.4,0 104.5,0 104.5,0 130.6,0 130.6,0 156.7,0 156.7,0 
				182.9,0 182.9,0 209,0 209,0 235.1,0 235.1,0 261.2,0 261.2,0 287.4,0 287.4,0 313.5,0 313.5,0 339.6,0 339.6,0 365.7,0 365.7,0 
				391.8,0 391.8,0 418,0 418,0 444.1,0 444.1,0 470.2,0 470.2,4.8 444.1,4.8 444.1,4.8 418,4.8 418,4.8 391.8,4.8 391.8,4.8 
				365.7,4.8 365.7,4.8 339.6,4.8 339.6,4.8 313.5,4.8 313.5,4.8 287.4,4.8 287.4,4.8 261.2,4.8 261.2,4.8 235.1,4.8 235.1,4.8 
				209,4.8 209,4.8 182.9,4.8 182.9,4.8 156.7,4.8 156.7,4.8 130.6,4.8 130.6,4.8 104.5,4.8 104.5,4.8 78.4,4.8 78.4,4.8 52.2,4.8 
				52.2,4.8 26.1,4.8 26.1,4.8 0,4.8 0,0 			"/>
			<polygon class="st0" points="0,48.5 26.1,48.5 26.1,48.5 52.2,48.5 52.2,48.5 78.4,48.5 78.4,48.5 104.5,48.5 104.5,48.5 
				130.6,48.5 130.6,48.5 156.7,48.5 156.7,48.5 182.9,48.5 182.9,48.5 209,48.5 209,48.5 235.1,48.5 235.1,48.5 261.2,48.5 
				261.2,48.5 287.4,48.5 287.4,48.5 313.5,48.5 313.5,48.5 339.6,48.5 339.6,48.5 365.7,48.5 365.7,48.5 391.8,48.5 391.8,48.5 
				418,48.5 418,48.5 444.1,48.5 444.1,48.5 470.2,48.5 470.2,53.3 444.1,53.3 444.1,53.3 418,53.3 418,53.3 391.8,53.3 391.8,53.3 
				365.7,53.3 365.7,53.3 339.6,53.3 339.6,53.3 313.5,53.3 313.5,53.3 287.4,53.3 287.4,53.3 261.2,53.3 261.2,53.3 235.1,53.3 
				235.1,53.3 209,53.3 209,53.3 182.9,53.3 182.9,53.3 156.7,53.3 156.7,53.3 130.6,53.3 130.6,53.3 104.5,53.3 104.5,53.3 
				78.4,53.3 78.4,53.3 52.2,53.3 52.2,53.3 26.1,53.3 26.1,53.3 0,53.3 0,48.5 			"/>
			<path class="st0" d="M0,9.7h4.8l0,0h4.8l0,0h4.8l0,0h4.8l0,0h4.8l0,0h4.8l0,0h4.8v4.8l0,0v4.8l0,0v4.8v0v4.8l0,0v4.8h-4.8l0,0
				h-4.8l0,0h-4.8v-4.8h4.8l0,0h4.8v-4.8v0v-4.8l0,0v-4.8h-4.8l0,0h-4.8l0,0h-4.8l0,0H9.7l0,0H4.8v4.8l0,0v4.8v0v4.8l0,0v4.8v0v4.8
				l0,0v4.8H0v-4.8l0,0v-4.8v0v-4.8l0,0v-4.8v0v-4.8l0,0v-4.8l0,0V9.7L0,9.7z M392.6,9.7h4.8h0h4.8l0,0h4.8l0,0h4.8l0,0h4.8l0,0h4.8
				v4.8l0,0v4.8l0,0v4.8v0v4.8l0,0v4.8h-4.8l0,0H412l0,0h-4.8v-4.8h4.8l0,0h4.8v-4.8v0v-4.8l0,0v-4.8H412l0,0h-4.8l0,0h-4.8l0,0
				h-4.8h0h-4.8v4.8l0,0v4.8v0v4.8l0,0v4.8v0v4.8l0,0v4.8h-4.8l0,0H383l0,0h-4.8l0,0h-4.8l0,0h-4.8l0,0h-4.8l0,0h-4.8v-4.8l0,0v-4.8
				v0v-4.8l0,0v-4.8v0v-4.8h4.8l0,0h4.8l0,0h4.8v4.8h-4.8l0,0h-4.8v4.8l0,0v4.8v0v4.8h4.8l0,0h4.8l0,0h4.8l0,0h4.8l0,0h4.8v-4.8v0
				v-4.8l0,0v-4.8v0v-4.8l0,0v-4.8l0,0V9.7H392.6L392.6,9.7z M470.2,38.8v4.8h-4.8l0,0h-4.8l0,0h-4.8l0,0h-4.8l0,0H446l0,0h-4.8l0,0
				h-4.8v-4.8l0,0v-4.8v0v-4.8l0,0v-4.8v0v-4.8h4.8l0,0h4.8l0,0h4.8v4.8H446l0,0h-4.8v4.8l0,0v4.8v0v4.8h4.8l0,0h4.8l0,0h4.8l0,0
				h4.8l0,0h4.8v-4.8v0v-4.8l0,0v-4.8v0v-4.8l0,0v-4.8l0,0V9.7h4.8v4.8l0,0v4.8l0,0v4.8v0v4.8l0,0v4.8v0V38.8L470.2,38.8L470.2,38.8
				z M460.5,29.1v4.8h-4.8l0,0h-4.8l0,0H446v-4.8h4.8l0,0h4.8v-4.8v0v-4.8l0,0v-4.8h-4.8l0,0H446l0,0h-4.8l0,0h-4.8l0,0h-4.8v4.8
				l0,0v4.8v0v4.8l0,0v4.8v0v4.8l0,0v4.8h-4.8l0,0h-4.8l0,0h-4.8l0,0H412l0,0h-4.8l0,0h-4.8l0,0h-4.8v-4.8l0,0v-4.8v0v-4.8l0,0v-4.8
				v0v-4.8h4.8l0,0h4.8l0,0h4.8v4.8h-4.8l0,0h-4.8v4.8l0,0v4.8v0v4.8h4.8l0,0h4.8l0,0h4.8l0,0h4.8l0,0h4.8v-4.8v0v-4.8l0,0v-4.8v0
				v-4.8l0,0v-4.8l0,0V9.7h4.8l0,0h4.8l0,0h4.8l0,0h4.8l0,0h4.8l0,0h4.8l0,0h4.8v4.8l0,0v4.8l0,0v4.8v0V29.1L460.5,29.1L460.5,29.1z
				 M315.1,9.7h4.8l0,0h4.8l0,0h4.8l0,0h4.8l0,0h4.8l0,0h4.8v4.8l0,0v4.8l0,0v4.8v0v4.8l0,0v4.8h-4.8l0,0h-4.8l0,0h-4.8v-4.8h4.8
				l0,0h4.8v-4.8v0v-4.8l0,0v-4.8h-4.8l0,0h-4.8l0,0h-4.8l0,0h-4.8l0,0h-4.8v4.8l0,0v4.8v0v4.8l0,0v4.8v0v4.8l0,0v4.8h-4.8l0,0h-4.8
				l0,0h-4.8l0,0h-4.8l0,0h-4.8l0,0H286l0,0h-4.8v-4.8l0,0v-4.8v0v-4.8l0,0v-4.8v0v-4.8h4.8l0,0h4.8l0,0h4.8v4.8h-4.8l0,0H286v4.8
				l0,0v4.8v0v4.8h4.8l0,0h4.8l0,0h4.8l0,0h4.8l0,0h4.8v-4.8v0v-4.8l0,0v-4.8v0v-4.8l0,0v-4.8l0,0V9.7H315.1L315.1,9.7z M383,29.1
				v4.8h-4.8l0,0h-4.8l0,0h-4.8v-4.8h4.8l0,0h4.8v-4.8v0v-4.8l0,0v-4.8h-4.8l0,0h-4.8l0,0h-4.8l0,0h-4.8l0,0h-4.8v4.8l0,0v4.8v0v4.8
				l0,0v4.8v0v4.8l0,0v4.8H349l0,0h-4.8l0,0h-4.8l0,0h-4.8l0,0h-4.8l0,0h-4.8l0,0h-4.8v-4.8l0,0v-4.8v0v-4.8l0,0v-4.8v0v-4.8h4.8
				l0,0h4.8l0,0h4.8v4.8h-4.8l0,0h-4.8v4.8l0,0v4.8v0v4.8h4.8l0,0h4.8l0,0h4.8l0,0h4.8l0,0h4.8v-4.8v0v-4.8l0,0v-4.8v0v-4.8l0,0
				v-4.8l0,0V9.7h4.8l0,0h4.8l0,0h4.8l0,0h4.8l0,0h4.8l0,0h4.8l0,0h4.8v4.8l0,0v4.8l0,0v4.8v0V29.1L383,29.1L383,29.1z M237.5,9.7
				h4.8l0,0h4.8l0,0h4.8l0,0h4.8l0,0h4.8l0,0h4.8v4.8l0,0v4.8l0,0v4.8v0v4.8l0,0v4.8h-4.8l0,0h-4.8l0,0h-4.8v-4.8h4.8l0,0h4.8v-4.8
				v0v-4.8l0,0v-4.8h-4.8l0,0h-4.8l0,0h-4.8l0,0h-4.8l0,0h-4.8v4.8l0,0v4.8v0v4.8l0,0v4.8v0v4.8l0,0v4.8h-4.8l0,0h-4.8l0,0H223h0
				h-4.8l0,0h-4.8l0,0h-4.8l0,0h-4.8v-4.8l0,0v-4.8v0v-4.8l0,0v-4.8v0v-4.8h4.8l0,0h4.8l0,0h4.8v4.8h-4.8l0,0h-4.8v4.8l0,0v4.8v0
				v4.8h4.8l0,0h4.8l0,0h4.8h0h4.8l0,0h4.8v-4.8v0v-4.8l0,0v-4.8v0v-4.8l0,0v-4.8l0,0V9.7H237.5L237.5,9.7z M305.4,29.1v4.8h-4.8
				l0,0h-4.8l0,0h-4.8v-4.8h4.8l0,0h4.8v-4.8v0v-4.8l0,0v-4.8h-4.8l0,0h-4.8l0,0H286l0,0h-4.8l0,0h-4.8v4.8l0,0v4.8v0v4.8l0,0v4.8v0
				v4.8l0,0v4.8h-4.8l0,0h-4.8l0,0h-4.8l0,0h-4.8l0,0h-4.8l0,0h-4.8l0,0h-4.8v-4.8l0,0v-4.8v0v-4.8l0,0v-4.8v0v-4.8h4.8l0,0h4.8l0,0
				h4.8v4.8h-4.8l0,0h-4.8v4.8l0,0v4.8v0v4.8h4.8l0,0h4.8l0,0h4.8l0,0h4.8l0,0h4.8v-4.8v0v-4.8l0,0v-4.8v0v-4.8l0,0v-4.8l0,0V9.7
				h4.8h0h4.8l0,0h4.8l0,0h4.8l0,0h4.8l0,0h4.8l0,0h4.8v4.8l0,0v4.8l0,0v4.8v0V29.1L305.4,29.1L305.4,29.1z M160,9.7h4.8l0,0h4.8
				l0,0h4.8l0,0h4.8h0h4.8l0,0h4.8v4.8l0,0v4.8l0,0v4.8v0v4.8l0,0v4.8h-4.8l0,0h-4.8h0h-4.8v-4.8h4.8h0h4.8v-4.8v0v-4.8l0,0v-4.8
				h-4.8h0h-4.8l0,0h-4.8l0,0h-4.8l0,0H160v4.8l0,0v4.8v0v4.8l0,0v4.8v0v4.8l0,0v4.8h-4.8l0,0h-4.8l0,0h-4.8l0,0h-4.8l0,0h-4.8h0
				h-4.8l0,0H126v-4.8l0,0v-4.8v0v-4.8l0,0v-4.8v0v-4.8h4.8l0,0h4.8h0h4.8v4.8h-4.8h0h-4.8v4.8l0,0v4.8v0v4.8h4.8h0h4.8l0,0h4.8l0,0
				h4.8l0,0h4.8v-4.8v0v-4.8l0,0v-4.8v0v-4.8l0,0v-4.8l0,0V9.7H160L160,9.7z M227.8,29.1v4.8H223h0h-4.8l0,0h-4.8v-4.8h4.8l0,0h4.8
				v-4.8v0v-4.8l0,0v-4.8h-4.8l0,0h-4.8l0,0h-4.8l0,0h-4.8l0,0h-4.8v4.8l0,0v4.8v0v4.8l0,0v4.8v0v4.8l0,0v4.8h-4.8l0,0h-4.8l0,0
				h-4.8l0,0h-4.8h0h-4.8l0,0h-4.8l0,0h-4.8v-4.8l0,0v-4.8v0v-4.8l0,0v-4.8v0v-4.8h4.8l0,0h4.8l0,0h4.8v4.8h-4.8l0,0h-4.8v4.8l0,0
				v4.8v0v4.8h4.8l0,0h4.8h0h4.8l0,0h4.8l0,0h4.8v-4.8v0v-4.8l0,0v-4.8v0v-4.8l0,0v-4.8l0,0V9.7h4.8l0,0h4.8l0,0h4.8l0,0h4.8l0,0
				h4.8l0,0h4.8h0h4.8v4.8l0,0v4.8l0,0v4.8v0V29.1L227.8,29.1L227.8,29.1z M82.4,9.7h4.8l0,0h4.8h0H97l0,0h4.8h0h4.8l0,0h4.8v4.8
				l0,0v4.8l0,0v4.8v0v4.8l0,0v4.8h-4.8l0,0h-4.8h0H97v-4.8h4.8h0h4.8v-4.8v0v-4.8l0,0v-4.8h-4.8h0H97l0,0h-4.8h0h-4.8l0,0h-4.8v4.8
				l0,0v4.8v0v4.8l0,0v4.8v0v4.8l0,0v4.8h-4.8h0h-4.8h0h-4.8l0,0H63l0,0h-4.8l0,0h-4.8l0,0h-4.8v-4.8l0,0v-4.8v0v-4.8l0,0v-4.8v0
				v-4.8h4.8l0,0h4.8l0,0H63v4.8h-4.8l0,0h-4.8v4.8l0,0v4.8v0v4.8h4.8l0,0H63l0,0h4.8l0,0h4.8h0h4.8v-4.8v0v-4.8l0,0v-4.8v0v-4.8
				l0,0v-4.8l0,0V9.7H82.4L82.4,9.7z M150.3,29.1v4.8h-4.8l0,0h-4.8l0,0h-4.8v-4.8h4.8l0,0h4.8v-4.8v0v-4.8l0,0v-4.8h-4.8l0,0h-4.8
				h0h-4.8l0,0H126l0,0h-4.8v4.8l0,0v4.8v0v4.8l0,0v4.8v0v4.8l0,0v4.8h-4.8l0,0h-4.8l0,0h-4.8l0,0h-4.8h0H97l0,0h-4.8h0h-4.8v-4.8
				l0,0v-4.8v0v-4.8l0,0v-4.8v0v-4.8h4.8h0H97l0,0h4.8v4.8H97l0,0h-4.8v4.8l0,0v4.8v0v4.8H97l0,0h4.8h0h4.8l0,0h4.8l0,0h4.8v-4.8v0
				v-4.8l0,0v-4.8v0v-4.8l0,0v-4.8l0,0V9.7h4.8l0,0h4.8l0,0h4.8l0,0h4.8h0h4.8l0,0h4.8l0,0h4.8v4.8l0,0v4.8l0,0v4.8v0V29.1
				L150.3,29.1L150.3,29.1z M72.7,29.1v4.8h-4.8l0,0H63l0,0h-4.8v-4.8H63l0,0h4.8v-4.8v0v-4.8l0,0v-4.8H63l0,0h-4.8l0,0h-4.8l0,0
				h-4.8l0,0h-4.8v4.8l0,0v4.8v0v4.8l0,0v4.8v0v4.8l0,0v4.8h-4.8h0h-4.8h0h-4.8l0,0h-4.8l0,0h-4.8l0,0h-4.8l0,0H9.7v-4.8l0,0v-4.8v0
				v-4.8l0,0v-4.8v0v-4.8h4.8l0,0h4.8l0,0h4.8v4.8h-4.8l0,0h-4.8v4.8l0,0v4.8v0v4.8h4.8l0,0h4.8l0,0h4.8l0,0h4.8h0h4.8v-4.8v0v-4.8
				l0,0v-4.8v0v-4.8l0,0v-4.8l0,0V9.7h4.8l0,0h4.8l0,0h4.8l0,0h4.8l0,0H63l0,0h4.8l0,0h4.8v4.8l0,0v4.8l0,0v4.8v0V29.1L72.7,29.1
				L72.7,29.1z"/>
		</g>
	</g>
	<g>
		<g>
			<polygon class="st0" points="465,0 491.1,0 491.1,0 517.2,0 517.2,0 543.4,0 543.4,0 569.5,0 569.5,0 595.6,0 595.6,0 621.7,0 
				621.7,0 647.9,0 647.9,0 674,0 674,0 700.1,0 700.1,0 726.2,0 726.2,0 752.4,0 752.4,0 778.5,0 778.5,0 804.6,0 804.6,0 830.7,0 
				830.7,0 856.8,0 856.8,0 883,0 883,0 909.1,0 909.1,0 935.2,0 935.2,4.8 909.1,4.8 909.1,4.8 883,4.8 883,4.8 856.8,4.8 
				856.8,4.8 830.7,4.8 830.7,4.8 804.6,4.8 804.6,4.8 778.5,4.8 778.5,4.8 752.4,4.8 752.4,4.8 726.2,4.8 726.2,4.8 700.1,4.8 
				700.1,4.8 674,4.8 674,4.8 647.9,4.8 647.9,4.8 621.7,4.8 621.7,4.8 595.6,4.8 595.6,4.8 569.5,4.8 569.5,4.8 543.4,4.8 
				543.4,4.8 517.2,4.8 517.2,4.8 491.1,4.8 491.1,4.8 465,4.8 465,0 			"/>
			<polygon class="st0" points="465,48.5 491.1,48.5 491.1,48.5 517.2,48.5 517.2,48.5 543.4,48.5 543.4,48.5 569.5,48.5 
				569.5,48.5 595.6,48.5 595.6,48.5 621.7,48.5 621.7,48.5 647.9,48.5 647.9,48.5 674,48.5 674,48.5 700.1,48.5 700.1,48.5 
				726.2,48.5 726.2,48.5 752.4,48.5 752.4,48.5 778.5,48.5 778.5,48.5 804.6,48.5 804.6,48.5 830.7,48.5 830.7,48.5 856.8,48.5 
				856.8,48.5 883,48.5 883,48.5 909.1,48.5 909.1,48.5 935.2,48.5 935.2,53.3 909.1,53.3 909.1,53.3 883,53.3 883,53.3 856.8,53.3 
				856.8,53.3 830.7,53.3 830.7,53.3 804.6,53.3 804.6,53.3 778.5,53.3 778.5,53.3 752.4,53.3 752.4,53.3 726.2,53.3 726.2,53.3 
				700.1,53.3 700.1,53.3 674,53.3 674,53.3 647.9,53.3 647.9,53.3 621.7,53.3 621.7,53.3 595.6,53.3 595.6,53.3 569.5,53.3 
				569.5,53.3 543.4,53.3 543.4,53.3 517.2,53.3 517.2,53.3 491.1,53.3 491.1,53.3 465,53.3 465,48.5 			"/>
			<path class="st0" d="M465,9.7h4.8l0,0h4.8l0,0h4.8l0,0h4.8l0,0h4.8l0,0h4.8l0,0h4.8v4.8l0,0v4.8l0,0v4.8v0v4.8l0,0v4.8h-4.8l0,0
				h-4.8l0,0h-4.8v-4.8h4.8l0,0h4.8v-4.8v0v-4.8l0,0v-4.8h-4.8l0,0h-4.8l0,0h-4.8l0,0h-4.8l0,0h-4.8v4.8l0,0v4.8v0v4.8l0,0v4.8v0
				v4.8l0,0v4.8H465v-4.8l0,0v-4.8v0v-4.8l0,0v-4.8v0v-4.8l0,0v-4.8l0,0V9.7L465,9.7z M857.6,9.7h4.8h0h4.8l0,0h4.8l0,0h4.8l0,0h4.8
				l0,0h4.8v4.8l0,0v4.8l0,0v4.8v0v4.8l0,0v4.8h-4.8l0,0H877l0,0h-4.8v-4.8h4.8l0,0h4.8v-4.8v0v-4.8l0,0v-4.8H877l0,0h-4.8l0,0h-4.8
				l0,0h-4.8h0h-4.8v4.8l0,0v4.8v0v4.8l0,0v4.8v0v4.8l0,0v4.8h-4.8l0,0H848l0,0h-4.8l0,0h-4.8l0,0h-4.8l0,0h-4.8l0,0h-4.8v-4.8l0,0
				v-4.8v0v-4.8l0,0v-4.8v0v-4.8h4.8l0,0h4.8l0,0h4.8v4.8h-4.8l0,0h-4.8v4.8l0,0v4.8v0v4.8h4.8l0,0h4.8l0,0h4.8l0,0h4.8l0,0h4.8
				v-4.8v0v-4.8l0,0v-4.8v0v-4.8l0,0v-4.8l0,0V9.7H857.6L857.6,9.7z M935.2,38.8v4.8h-4.8l0,0h-4.8l0,0h-4.8l0,0h-4.8l0,0H911l0,0
				h-4.8l0,0h-4.8v-4.8l0,0v-4.8v0v-4.8l0,0v-4.8v0v-4.8h4.8l0,0h4.8l0,0h4.8v4.8H911l0,0h-4.8v4.8l0,0v4.8v0v4.8h4.8l0,0h4.8l0,0
				h4.8l0,0h4.8l0,0h4.8v-4.8v0v-4.8l0,0v-4.8v0v-4.8l0,0v-4.8l0,0V9.7h4.8v4.8l0,0v4.8l0,0v4.8v0v4.8l0,0v4.8v0V38.8L935.2,38.8
				L935.2,38.8z M925.5,29.1v4.8h-4.8l0,0h-4.8l0,0H911v-4.8h4.8l0,0h4.8v-4.8v0v-4.8l0,0v-4.8h-4.8l0,0H911l0,0h-4.8l0,0h-4.8l0,0
				h-4.8v4.8l0,0v4.8v0v4.8l0,0v4.8v0v4.8l0,0v4.8h-4.8l0,0h-4.8l0,0h-4.8l0,0H877l0,0h-4.8l0,0h-4.8l0,0h-4.8v-4.8l0,0v-4.8v0v-4.8
				l0,0v-4.8v0v-4.8h4.8l0,0h4.8l0,0h4.8v4.8h-4.8l0,0h-4.8v4.8l0,0v4.8v0v4.8h4.8l0,0h4.8l0,0h4.8l0,0h4.8l0,0h4.8v-4.8v0v-4.8l0,0
				v-4.8v0v-4.8l0,0v-4.8l0,0V9.7h4.8l0,0h4.8l0,0h4.8l0,0h4.8l0,0h4.8l0,0h4.8l0,0h4.8v4.8l0,0v4.8l0,0v4.8v0V29.1L925.5,29.1
				L925.5,29.1z M780.1,9.7h4.8l0,0h4.8l0,0h4.8l0,0h4.8l0,0h4.8l0,0h4.8v4.8l0,0v4.8l0,0v4.8v0v4.8l0,0v4.8h-4.8l0,0h-4.8l0,0h-4.8
				v-4.8h4.8l0,0h4.8v-4.8v0v-4.8l0,0v-4.8h-4.8l0,0h-4.8l0,0h-4.8l0,0h-4.8l0,0h-4.8v4.8l0,0v4.8v0v4.8l0,0v4.8v0v4.8l0,0v4.8h-4.8
				l0,0h-4.8l0,0h-4.8l0,0h-4.8l0,0h-4.8l0,0H751l0,0h-4.8v-4.8l0,0v-4.8v0v-4.8l0,0v-4.8v0v-4.8h4.8l0,0h4.8l0,0h4.8v4.8h-4.8l0,0
				H751v4.8l0,0v4.8v0v4.8h4.8l0,0h4.8l0,0h4.8l0,0h4.8l0,0h4.8v-4.8v0v-4.8l0,0v-4.8v0v-4.8l0,0v-4.8l0,0V9.7H780.1L780.1,9.7z
				 M848,29.1v4.8h-4.8l0,0h-4.8l0,0h-4.8v-4.8h4.8l0,0h4.8v-4.8v0v-4.8l0,0v-4.8h-4.8l0,0h-4.8l0,0h-4.8l0,0h-4.8l0,0h-4.8v4.8l0,0
				v4.8v0v4.8l0,0v4.8v0v4.8l0,0v4.8H814l0,0h-4.8l0,0h-4.8l0,0h-4.8l0,0h-4.8l0,0h-4.8l0,0h-4.8v-4.8l0,0v-4.8v0v-4.8l0,0v-4.8v0
				v-4.8h4.8l0,0h4.8l0,0h4.8v4.8h-4.8l0,0h-4.8v4.8l0,0v4.8v0v4.8h4.8l0,0h4.8l0,0h4.8l0,0h4.8l0,0h4.8v-4.8v0v-4.8l0,0v-4.8v0
				v-4.8l0,0v-4.8l0,0V9.7h4.8l0,0h4.8l0,0h4.8l0,0h4.8l0,0h4.8l0,0h4.8l0,0h4.8v4.8l0,0v4.8l0,0v4.8v0V29.1L848,29.1L848,29.1z
				 M702.5,9.7h4.8l0,0h4.8l0,0h4.8l0,0h4.8l0,0h4.8l0,0h4.8v4.8l0,0v4.8l0,0v4.8v0v4.8l0,0v4.8h-4.8l0,0h-4.8l0,0h-4.8v-4.8h4.8
				l0,0h4.8v-4.8v0v-4.8l0,0v-4.8h-4.8l0,0h-4.8l0,0h-4.8l0,0h-4.8l0,0h-4.8v4.8l0,0v4.8v0v4.8l0,0v4.8v0v4.8l0,0v4.8h-4.8l0,0h-4.8
				l0,0H688h0h-4.8l0,0h-4.8l0,0h-4.8l0,0h-4.8v-4.8l0,0v-4.8v0v-4.8l0,0v-4.8v0v-4.8h4.8l0,0h4.8l0,0h4.8v4.8h-4.8l0,0h-4.8v4.8
				l0,0v4.8v0v4.8h4.8l0,0h4.8l0,0h4.8h0h4.8l0,0h4.8v-4.8v0v-4.8l0,0v-4.8v0v-4.8l0,0v-4.8l0,0V9.7H702.5L702.5,9.7z M770.4,29.1
				v4.8h-4.8l0,0h-4.8l0,0h-4.8v-4.8h4.8l0,0h4.8v-4.8v0v-4.8l0,0v-4.8h-4.8l0,0h-4.8l0,0H751l0,0h-4.8l0,0h-4.8v4.8l0,0v4.8v0v4.8
				l0,0v4.8v0v4.8l0,0v4.8h-4.8l0,0h-4.8l0,0h-4.8l0,0h-4.8l0,0h-4.8l0,0h-4.8l0,0h-4.8v-4.8l0,0v-4.8v0v-4.8l0,0v-4.8v0v-4.8h4.8
				l0,0h4.8l0,0h4.8v4.8h-4.8l0,0h-4.8v4.8l0,0v4.8v0v4.8h4.8l0,0h4.8l0,0h4.8l0,0h4.8l0,0h4.8v-4.8v0v-4.8l0,0v-4.8v0v-4.8l0,0
				v-4.8l0,0V9.7h4.8h0h4.8l0,0h4.8l0,0h4.8l0,0h4.8l0,0h4.8l0,0h4.8v4.8l0,0v4.8l0,0v4.8v0V29.1L770.4,29.1L770.4,29.1z M625,9.7
				h4.8l0,0h4.8l0,0h4.8l0,0h4.8h0h4.8l0,0h4.8v4.8l0,0v4.8l0,0v4.8v0v4.8l0,0v4.8h-4.8l0,0h-4.8h0h-4.8v-4.8h4.8h0h4.8v-4.8v0v-4.8
				l0,0v-4.8h-4.8h0h-4.8l0,0h-4.8l0,0h-4.8l0,0H625v4.8l0,0v4.8v0v4.8l0,0v4.8v0v4.8l0,0v4.8h-4.8l0,0h-4.8l0,0h-4.8l0,0h-4.8l0,0
				h-4.8h0h-4.8l0,0H591v-4.8l0,0v-4.8v0v-4.8l0,0v-4.8v0v-4.8h4.8l0,0h4.8h0h4.8v4.8h-4.8h0h-4.8v4.8l0,0v4.8v0v4.8h4.8h0h4.8l0,0
				h4.8l0,0h4.8l0,0h4.8v-4.8v0v-4.8l0,0v-4.8v0v-4.8l0,0v-4.8l0,0V9.7H625L625,9.7z M692.8,29.1v4.8H688h0h-4.8l0,0h-4.8v-4.8h4.8
				l0,0h4.8v-4.8v0v-4.8l0,0v-4.8h-4.8l0,0h-4.8l0,0h-4.8l0,0h-4.8l0,0h-4.8v4.8l0,0v4.8v0v4.8l0,0v4.8v0v4.8l0,0v4.8h-4.8l0,0h-4.8
				l0,0h-4.8l0,0h-4.8h0h-4.8l0,0h-4.8l0,0h-4.8v-4.8l0,0v-4.8v0v-4.8l0,0v-4.8v0v-4.8h4.8l0,0h4.8l0,0h4.8v4.8h-4.8l0,0h-4.8v4.8
				l0,0v4.8v0v4.8h4.8l0,0h4.8h0h4.8l0,0h4.8l0,0h4.8v-4.8v0v-4.8l0,0v-4.8v0v-4.8l0,0v-4.8l0,0V9.7h4.8l0,0h4.8l0,0h4.8l0,0h4.8
				l0,0h4.8l0,0h4.8h0h4.8v4.8l0,0v4.8l0,0v4.8v0V29.1L692.8,29.1L692.8,29.1z M547.4,9.7h4.8l0,0h4.8h0h4.8l0,0h4.8h0h4.8l0,0h4.8
				v4.8l0,0v4.8l0,0v4.8v0v4.8l0,0v4.8h-4.8l0,0h-4.8h0H562v-4.8h4.8h0h4.8v-4.8v0v-4.8l0,0v-4.8h-4.8h0H562l0,0h-4.8h0h-4.8l0,0
				h-4.8v4.8l0,0v4.8v0v4.8l0,0v4.8v0v4.8l0,0v4.8h-4.8h0h-4.8h0h-4.8l0,0H528l0,0h-4.8l0,0h-4.8l0,0h-4.8v-4.8l0,0v-4.8v0v-4.8l0,0
				v-4.8v0v-4.8h4.8l0,0h4.8l0,0h4.8v4.8h-4.8l0,0h-4.8v4.8l0,0v4.8v0v4.8h4.8l0,0h4.8l0,0h4.8l0,0h4.8h0h4.8v-4.8v0v-4.8l0,0v-4.8
				v0v-4.8l0,0v-4.8l0,0V9.7H547.4L547.4,9.7z M615.3,29.1v4.8h-4.8l0,0h-4.8l0,0h-4.8v-4.8h4.8l0,0h4.8v-4.8v0v-4.8l0,0v-4.8h-4.8
				l0,0h-4.8h0h-4.8l0,0H591l0,0h-4.8v4.8l0,0v4.8v0v4.8l0,0v4.8v0v4.8l0,0v4.8h-4.8l0,0h-4.8l0,0h-4.8l0,0h-4.8h0H562l0,0h-4.8h0
				h-4.8v-4.8l0,0v-4.8v0v-4.8l0,0v-4.8v0v-4.8h4.8h0h4.8l0,0h4.8v4.8H562l0,0h-4.8v4.8l0,0v4.8v0v4.8h4.8l0,0h4.8h0h4.8l0,0h4.8
				l0,0h4.8v-4.8v0v-4.8l0,0v-4.8v0v-4.8l0,0v-4.8l0,0V9.7h4.8l0,0h4.8l0,0h4.8l0,0h4.8h0h4.8l0,0h4.8l0,0h4.8v4.8l0,0v4.8l0,0v4.8
				v0V29.1L615.3,29.1L615.3,29.1z M537.7,29.1v4.8h-4.8l0,0H528l0,0h-4.8v-4.8h4.8l0,0h4.8v-4.8v0v-4.8l0,0v-4.8H528l0,0h-4.8l0,0
				h-4.8l0,0h-4.8l0,0h-4.8v4.8l0,0v4.8v0v4.8l0,0v4.8v0v4.8l0,0v4.8h-4.8h0h-4.8h0h-4.8l0,0h-4.8l0,0h-4.8l0,0h-4.8l0,0h-4.8v-4.8
				l0,0v-4.8v0v-4.8l0,0v-4.8v0v-4.8h4.8l0,0h4.8l0,0h4.8v4.8h-4.8l0,0h-4.8v4.8l0,0v4.8v0v4.8h4.8l0,0h4.8l0,0h4.8l0,0h4.8h0h4.8
				v-4.8v0v-4.8l0,0v-4.8v0v-4.8l0,0v-4.8l0,0V9.7h4.8l0,0h4.8l0,0h4.8l0,0h4.8l0,0h4.8l0,0h4.8l0,0h4.8v4.8l0,0v4.8l0,0v4.8v0V29.1
				L537.7,29.1L537.7,29.1z"/>
		</g>
	</g>
	<g>
		<g>
			<polygon class="st0" points="930,0 956.1,0 956.1,0 982.2,0 982.2,0 1008.4,0 1008.4,0 1034.5,0 1034.5,0 1060.6,0 1060.6,0 
				1086.7,0 1086.7,0 1112.9,0 1112.9,0 1139,0 1139,0 1165.1,0 1165.1,0 1191.2,0 1191.2,0 1217.4,0 1217.4,0 1243.5,0 1243.5,0 
				1269.6,0 1269.6,0 1295.7,0 1295.7,0 1321.8,0 1321.8,0 1348,0 1348,0 1374.1,0 1374.1,0 1400.2,0 1400.2,4.8 1374.1,4.8 
				1374.1,4.8 1348,4.8 1348,4.8 1321.8,4.8 1321.8,4.8 1295.7,4.8 1295.7,4.8 1269.6,4.8 1269.6,4.8 1243.5,4.8 1243.5,4.8 
				1217.4,4.8 1217.4,4.8 1191.2,4.8 1191.2,4.8 1165.1,4.8 1165.1,4.8 1139,4.8 1139,4.8 1112.9,4.8 1112.9,4.8 1086.7,4.8 
				1086.7,4.8 1060.6,4.8 1060.6,4.8 1034.5,4.8 1034.5,4.8 1008.4,4.8 1008.4,4.8 982.2,4.8 982.2,4.8 956.1,4.8 956.1,4.8 
				930,4.8 930,0 			"/>
			<polygon class="st0" points="930,48.5 956.1,48.5 956.1,48.5 982.2,48.5 982.2,48.5 1008.4,48.5 1008.4,48.5 1034.5,48.5 
				1034.5,48.5 1060.6,48.5 1060.6,48.5 1086.7,48.5 1086.7,48.5 1112.9,48.5 1112.9,48.5 1139,48.5 1139,48.5 1165.1,48.5 
				1165.1,48.5 1191.2,48.5 1191.2,48.5 1217.4,48.5 1217.4,48.5 1243.5,48.5 1243.5,48.5 1269.6,48.5 1269.6,48.5 1295.7,48.5 
				1295.7,48.5 1321.8,48.5 1321.8,48.5 1348,48.5 1348,48.5 1374.1,48.5 1374.1,48.5 1400.2,48.5 1400.2,53.3 1374.1,53.3 
				1374.1,53.3 1348,53.3 1348,53.3 1321.8,53.3 1321.8,53.3 1295.7,53.3 1295.7,53.3 1269.6,53.3 1269.6,53.3 1243.5,53.3 
				1243.5,53.3 1217.4,53.3 1217.4,53.3 1191.2,53.3 1191.2,53.3 1165.1,53.3 1165.1,53.3 1139,53.3 1139,53.3 1112.9,53.3 
				1112.9,53.3 1086.7,53.3 1086.7,53.3 1060.6,53.3 1060.6,53.3 1034.5,53.3 1034.5,53.3 1008.4,53.3 1008.4,53.3 982.2,53.3 
				982.2,53.3 956.1,53.3 956.1,53.3 930,53.3 930,48.5 			"/>
			<path class="st0" d="M930,9.7h4.8l0,0h4.8l0,0h4.8l0,0h4.8l0,0h4.8l0,0h4.8l0,0h4.8v4.8l0,0v4.8l0,0v4.8v0v4.8l0,0v4.8h-4.8l0,0
				h-4.8l0,0h-4.8v-4.8h4.8l0,0h4.8v-4.8v0v-4.8l0,0v-4.8h-4.8l0,0h-4.8l0,0h-4.8l0,0h-4.8l0,0h-4.8v4.8l0,0v4.8v0v4.8l0,0v4.8v0
				v4.8l0,0v4.8H930v-4.8l0,0v-4.8v0v-4.8l0,0v-4.8v0v-4.8l0,0v-4.8l0,0V9.7L930,9.7z M1322.6,9.7h4.8h0h4.8l0,0h4.8l0,0h4.8l0,0
				h4.8l0,0h4.8v4.8l0,0v4.8l0,0v4.8v0v4.8l0,0v4.8h-4.8l0,0h-4.8l0,0h-4.8v-4.8h4.8l0,0h4.8v-4.8v0v-4.8l0,0v-4.8h-4.8l0,0h-4.8
				l0,0h-4.8l0,0h-4.8h0h-4.8v4.8l0,0v4.8v0v4.8l0,0v4.8v0v4.8l0,0v4.8h-4.8l0,0h-4.8l0,0h-4.8l0,0h-4.8l0,0h-4.8l0,0h-4.8l0,0h-4.8
				v-4.8l0,0v-4.8v0v-4.8l0,0v-4.8v0v-4.8h4.8l0,0h4.8l0,0h4.8v4.8h-4.8l0,0h-4.8v4.8l0,0v4.8v0v4.8h4.8l0,0h4.8l0,0h4.8l0,0h4.8
				l0,0h4.8v-4.8v0v-4.8l0,0v-4.8v0v-4.8l0,0v-4.8l0,0V9.7H1322.6L1322.6,9.7z M1400.2,38.8v4.8h-4.8l0,0h-4.8l0,0h-4.8l0,0h-4.8
				l0,0h-4.8l0,0h-4.8l0,0h-4.8v-4.8l0,0v-4.8v0v-4.8l0,0v-4.8v0v-4.8h4.8l0,0h4.8l0,0h4.8v4.8h-4.8l0,0h-4.8v4.8l0,0v4.8v0v4.8h4.8
				l0,0h4.8l0,0h4.8l0,0h4.8l0,0h4.8v-4.8v0v-4.8l0,0v-4.8v0v-4.8l0,0v-4.8l0,0V9.7h4.8v4.8l0,0v4.8l0,0v4.8v0v4.8l0,0v4.8v0V38.8
				L1400.2,38.8L1400.2,38.8z M1390.5,29.1v4.8h-4.8l0,0h-4.8l0,0h-4.8v-4.8h4.8l0,0h4.8v-4.8v0v-4.8l0,0v-4.8h-4.8l0,0h-4.8l0,0
				h-4.8l0,0h-4.8l0,0h-4.8v4.8l0,0v4.8v0v4.8l0,0v4.8v0v4.8l0,0v4.8h-4.8l0,0h-4.8l0,0h-4.8l0,0h-4.8l0,0h-4.8l0,0h-4.8l0,0h-4.8
				v-4.8l0,0v-4.8v0v-4.8l0,0v-4.8v0v-4.8h4.8l0,0h4.8l0,0h4.8v4.8h-4.8l0,0h-4.8v4.8l0,0v4.8v0v4.8h4.8l0,0h4.8l0,0h4.8l0,0h4.8
				l0,0h4.8v-4.8v0v-4.8l0,0v-4.8v0v-4.8l0,0v-4.8l0,0V9.7h4.8l0,0h4.8l0,0h4.8l0,0h4.8l0,0h4.8l0,0h4.8l0,0h4.8v4.8l0,0v4.8l0,0
				v4.8v0V29.1L1390.5,29.1L1390.5,29.1z M1245.1,9.7h4.8l0,0h4.8l0,0h4.8l0,0h4.8l0,0h4.8l0,0h4.8v4.8l0,0v4.8l0,0v4.8v0v4.8l0,0
				v4.8h-4.8l0,0h-4.8l0,0h-4.8v-4.8h4.8l0,0h4.8v-4.8v0v-4.8l0,0v-4.8h-4.8l0,0h-4.8l0,0h-4.8l0,0h-4.8l0,0h-4.8v4.8l0,0v4.8v0v4.8
				l0,0v4.8v0v4.8l0,0v4.8h-4.8l0,0h-4.8l0,0h-4.8l0,0h-4.8l0,0h-4.8l0,0h-4.8l0,0h-4.8v-4.8l0,0v-4.8v0v-4.8l0,0v-4.8v0v-4.8h4.8
				l0,0h4.8l0,0h4.8v4.8h-4.8l0,0h-4.8v4.8l0,0v4.8v0v4.8h4.8l0,0h4.8l0,0h4.8l0,0h4.8l0,0h4.8v-4.8v0v-4.8l0,0v-4.8v0v-4.8l0,0
				v-4.8l0,0V9.7H1245.1L1245.1,9.7z M1313,29.1v4.8h-4.8l0,0h-4.8l0,0h-4.8v-4.8h4.8l0,0h4.8v-4.8v0v-4.8l0,0v-4.8h-4.8l0,0h-4.8
				l0,0h-4.8l0,0h-4.8l0,0h-4.8v4.8l0,0v4.8v0v4.8l0,0v4.8v0v4.8l0,0v4.8h-4.8l0,0h-4.8l0,0h-4.8l0,0h-4.8l0,0h-4.8l0,0h-4.8l0,0
				h-4.8v-4.8l0,0v-4.8v0v-4.8l0,0v-4.8v0v-4.8h4.8l0,0h4.8l0,0h4.8v4.8h-4.8l0,0h-4.8v4.8l0,0v4.8v0v4.8h4.8l0,0h4.8l0,0h4.8l0,0
				h4.8l0,0h4.8v-4.8v0v-4.8l0,0v-4.8v0v-4.8l0,0v-4.8l0,0V9.7h4.8l0,0h4.8l0,0h4.8l0,0h4.8l0,0h4.8l0,0h4.8l0,0h4.8v4.8l0,0v4.8
				l0,0v4.8v0V29.1L1313,29.1L1313,29.1z M1167.5,9.7h4.8l0,0h4.8l0,0h4.8l0,0h4.8l0,0h4.8l0,0h4.8v4.8l0,0v4.8l0,0v4.8v0v4.8l0,0
				v4.8h-4.8l0,0h-4.8l0,0h-4.8v-4.8h4.8l0,0h4.8v-4.8v0v-4.8l0,0v-4.8h-4.8l0,0h-4.8l0,0h-4.8l0,0h-4.8l0,0h-4.8v4.8l0,0v4.8v0v4.8
				l0,0v4.8v0v4.8l0,0v4.8h-4.8l0,0h-4.8l0,0h-4.8h0h-4.8l0,0h-4.8l0,0h-4.8l0,0h-4.8v-4.8l0,0v-4.8v0v-4.8l0,0v-4.8v0v-4.8h4.8l0,0
				h4.8l0,0h4.8v4.8h-4.8l0,0h-4.8v4.8l0,0v4.8v0v4.8h4.8l0,0h4.8l0,0h4.8h0h4.8l0,0h4.8v-4.8v0v-4.8l0,0v-4.8v0v-4.8l0,0v-4.8l0,0
				V9.7H1167.5L1167.5,9.7z M1235.4,29.1v4.8h-4.8l0,0h-4.8l0,0h-4.8v-4.8h4.8l0,0h4.8v-4.8v0v-4.8l0,0v-4.8h-4.8l0,0h-4.8l0,0h-4.8
				l0,0h-4.8l0,0h-4.8v4.8l0,0v4.8v0v4.8l0,0v4.8v0v4.8l0,0v4.8h-4.8l0,0h-4.8l0,0h-4.8l0,0h-4.8l0,0h-4.8l0,0h-4.8l0,0h-4.8v-4.8
				l0,0v-4.8v0v-4.8l0,0v-4.8v0v-4.8h4.8l0,0h4.8l0,0h4.8v4.8h-4.8l0,0h-4.8v4.8l0,0v4.8v0v4.8h4.8l0,0h4.8l0,0h4.8l0,0h4.8l0,0h4.8
				v-4.8v0v-4.8l0,0v-4.8v0v-4.8l0,0v-4.8l0,0V9.7h4.8h0h4.8l0,0h4.8l0,0h4.8l0,0h4.8l0,0h4.8l0,0h4.8v4.8l0,0v4.8l0,0v4.8v0V29.1
				L1235.4,29.1L1235.4,29.1z M1090,9.7h4.8l0,0h4.8l0,0h4.8l0,0h4.8h0h4.8l0,0h4.8v4.8l0,0v4.8l0,0v4.8v0v4.8l0,0v4.8h-4.8l0,0
				h-4.8h0h-4.8v-4.8h4.8h0h4.8v-4.8v0v-4.8l0,0v-4.8h-4.8h0h-4.8l0,0h-4.8l0,0h-4.8l0,0h-4.8v4.8l0,0v4.8v0v4.8l0,0v4.8v0v4.8l0,0
				v4.8h-4.8l0,0h-4.8l0,0h-4.8l0,0h-4.8l0,0h-4.8h0h-4.8l0,0h-4.8v-4.8l0,0v-4.8v0v-4.8l0,0v-4.8v0v-4.8h4.8l0,0h4.8h0h4.8v4.8
				h-4.8h0h-4.8v4.8l0,0v4.8v0v4.8h4.8h0h4.8l0,0h4.8l0,0h4.8l0,0h4.8v-4.8v0v-4.8l0,0v-4.8v0v-4.8l0,0v-4.8l0,0V9.7H1090L1090,9.7z
				 M1157.8,29.1v4.8h-4.8h0h-4.8l0,0h-4.8v-4.8h4.8l0,0h4.8v-4.8v0v-4.8l0,0v-4.8h-4.8l0,0h-4.8l0,0h-4.8l0,0h-4.8l0,0h-4.8v4.8
				l0,0v4.8v0v4.8l0,0v4.8v0v4.8l0,0v4.8h-4.8l0,0h-4.8l0,0h-4.8l0,0h-4.8h0h-4.8l0,0h-4.8l0,0h-4.8v-4.8l0,0v-4.8v0v-4.8l0,0v-4.8
				v0v-4.8h4.8l0,0h4.8l0,0h4.8v4.8h-4.8l0,0h-4.8v4.8l0,0v4.8v0v4.8h4.8l0,0h4.8h0h4.8l0,0h4.8l0,0h4.8v-4.8v0v-4.8l0,0v-4.8v0
				v-4.8l0,0v-4.8l0,0V9.7h4.8l0,0h4.8l0,0h4.8l0,0h4.8l0,0h4.8l0,0h4.8h0h4.8v4.8l0,0v4.8l0,0v4.8v0V29.1L1157.8,29.1L1157.8,29.1z
				 M1012.4,9.7h4.8l0,0h4.8h0h4.8l0,0h4.8h0h4.8l0,0h4.8v4.8l0,0v4.8l0,0v4.8v0v4.8l0,0v4.8h-4.8l0,0h-4.8h0h-4.8v-4.8h4.8h0h4.8
				v-4.8v0v-4.8l0,0v-4.8h-4.8h0h-4.8l0,0h-4.8h0h-4.8l0,0h-4.8v4.8l0,0v4.8v0v4.8l0,0v4.8v0v4.8l0,0v4.8h-4.8h0h-4.8h0h-4.8l0,0
				H993l0,0h-4.8l0,0h-4.8l0,0h-4.8v-4.8l0,0v-4.8v0v-4.8l0,0v-4.8v0v-4.8h4.8l0,0h4.8l0,0h4.8v4.8h-4.8l0,0h-4.8v4.8l0,0v4.8v0v4.8
				h4.8l0,0h4.8l0,0h4.8l0,0h4.8h0h4.8v-4.8v0v-4.8l0,0v-4.8v0v-4.8l0,0v-4.8l0,0V9.7H1012.4L1012.4,9.7z M1080.3,29.1v4.8h-4.8l0,0
				h-4.8l0,0h-4.8v-4.8h4.8l0,0h4.8v-4.8v0v-4.8l0,0v-4.8h-4.8l0,0h-4.8h0h-4.8l0,0h-4.8l0,0h-4.8v4.8l0,0v4.8v0v4.8l0,0v4.8v0v4.8
				l0,0v4.8h-4.8l0,0h-4.8l0,0h-4.8l0,0h-4.8h0h-4.8l0,0h-4.8h0h-4.8v-4.8l0,0v-4.8v0v-4.8l0,0v-4.8v0v-4.8h4.8h0h4.8l0,0h4.8v4.8
				h-4.8l0,0h-4.8v4.8l0,0v4.8v0v4.8h4.8l0,0h4.8h0h4.8l0,0h4.8l0,0h4.8v-4.8v0v-4.8l0,0v-4.8v0v-4.8l0,0v-4.8l0,0V9.7h4.8l0,0h4.8
				l0,0h4.8l0,0h4.8h0h4.8l0,0h4.8l0,0h4.8v4.8l0,0v4.8l0,0v4.8v0V29.1L1080.3,29.1L1080.3,29.1z M1002.7,29.1v4.8h-4.8l0,0H993l0,0
				h-4.8v-4.8h4.8l0,0h4.8v-4.8v0v-4.8l0,0v-4.8H993l0,0h-4.8l0,0h-4.8l0,0h-4.8l0,0h-4.8v4.8l0,0v4.8v0v4.8l0,0v4.8v0v4.8l0,0v4.8
				h-4.8h0h-4.8h0h-4.8l0,0h-4.8l0,0h-4.8l0,0h-4.8l0,0h-4.8v-4.8l0,0v-4.8v0v-4.8l0,0v-4.8v0v-4.8h4.8l0,0h4.8l0,0h4.8v4.8h-4.8
				l0,0h-4.8v4.8l0,0v4.8v0v4.8h4.8l0,0h4.8l0,0h4.8l0,0h4.8h0h4.8v-4.8v0v-4.8l0,0v-4.8v0v-4.8l0,0v-4.8l0,0V9.7h4.8l0,0h4.8l0,0
				h4.8l0,0h4.8l0,0h4.8l0,0h4.8l0,0h4.8v4.8l0,0v4.8l0,0v4.8v0V29.1L1002.7,29.1L1002.7,29.1z"/>
		</g>
	</g>
</g>
</svg>
