<?xml version="1.0" encoding="iso-8859-1"?>
<!-- Generator: Adobe Illustrator 19.0.0, SVG Export Plug-In . SVG Version: 6.00 Build 0)  -->
<svg version="1.1" id="Capa_1" xmlns="http://www.w3.org/2000/svg" xmlns:xlink="http://www.w3.org/1999/xlink" x="0px" y="0px"
	 viewBox="0 0 512.001 512.001" style="enable-background:new 0 0 512.001 512.001;" xml:space="preserve">
<g>
	<polygon style="fill:#E4E5E5;" points="153.805,142.005 204.895,142.005 255.991,142.005 307.083,142.005 358.176,142.005 
		489.807,142.005 255.991,10.011 22.175,142.005 	"/>
	<path style="fill:#B2B1B1;" d="M255.991,142.005h-51.096h-51.091H22.175H10c2.526,9.434,3.439,16.665,3.439,25.001
		c0,8.333-1.225,16.734-3.439,24.999h36.199h47.598h76.398h47.597h38.199h38.197h47.598h76.398h47.596h36.201
		c-2.216-8.265-3.438-16.666-3.438-24.999c0-8.336,0.909-15.567,3.438-25.001h-12.174H358.176h-51.093H255.991z"/>
	<g>
		<polygon style="fill:#E4E5E5;" points="99.998,441.992 93.797,192.005 46.199,192.005 39.998,441.992 		"/>
		<polygon style="fill:#E4E5E5;" points="170.195,192.005 163.994,441.992 223.991,441.992 217.792,192.005 		"/>
		<polygon style="fill:#E4E5E5;" points="294.189,192.005 287.988,441.992 347.986,441.992 341.787,192.005 		"/>
		<polygon style="fill:#E4E5E5;" points="418.185,192.005 411.984,441.992 471.981,441.992 465.781,192.005 		"/>
	</g>
	<polygon style="fill:#B2B1B1;" points="411.984,441.992 347.986,441.992 287.988,441.992 223.991,441.992 163.994,441.992 
		99.998,441.992 39.998,441.992 39.998,471.992 471.981,471.992 471.981,441.992 	"/>
	<polygon style="fill:#959596;" points="471.981,471.992 39.998,471.992 10,471.99 10,501.99 501.981,501.99 501.981,471.99 	"/>
</g>
<g>
	<path style="fill:#000001;" d="M501.981,461.991h-20v-20c0-0.041-0.006-0.08-0.006-0.121c-0.001-0.042,0.004-0.083,0.003-0.125
		l-5.947-239.74h25.95c0.008,0.001,0.014,0.001,0.02,0c5.523,0,10-4.477,10-10c0-1.117-0.184-2.193-0.522-3.196
		c-1.949-7.457-2.936-14.788-2.936-21.803c0-7.814,0.868-14.098,3.097-22.412c0.806-3.003,0.168-6.209-1.725-8.676
		c-1.893-2.467-4.824-3.913-7.934-3.913h-9.547L260.907,1.303c-3.051-1.723-6.781-1.723-9.832,0L19.547,132.005H10
		c-3.108,0-6.04,1.445-7.933,3.912c-1.893,2.466-2.531,5.672-1.727,8.675c2.228,8.323,3.098,14.607,3.098,22.414
		c0,7.196-1.043,14.736-3.098,22.412c-0.805,3.003-0.166,6.209,1.727,8.676c1.893,2.466,4.824,3.911,7.933,3.911h25.947
		l-5.947,239.74c0,0.042,0.004,0.083,0.004,0.125c-0.001,0.041-0.006,0.08-0.006,0.121v20H10c-5.522,0-10,4.478-10,10v30
		c0,5.522,4.478,10,10,10h491.981c5.523,0,10-4.478,10-10v-30C511.981,466.467,507.504,461.991,501.981,461.991z M357.741,431.991
		l-5.704-229.987h55.897l-5.705,229.987H357.741z M233.746,431.991l-5.703-229.987h55.895l-5.704,229.987H233.746z M109.752,431.991
		l-5.705-229.987h55.897l-5.705,229.987H109.752z M174.245,431.991l5.705-229.987h28.089l5.703,229.987H174.245z M298.239,431.991
		l5.705-229.987h28.089l5.703,229.987H298.239z M461.731,431.991h-39.496l5.705-229.987h28.087L461.731,431.991z M255.991,21.494
		l195.762,110.511h-83.578v-9.999c0-5.523-4.478-10-10-10c-5.523,0-10,4.477-10,10v9.999h-31.094v-30c0-5.522-4.477-10-10-10
		c-5.523,0-10,4.478-10,10v30h-31.093V90.971c0-5.522-4.478-10-10-10c-5.523,0-10,4.478-10,10v41.034h-31.097v-30
		c0-5.522-4.477-10-10-10c-5.522,0-10,4.478-10,10v30h-31.092v-9.999c0-5.523-4.478-10-10-10c-5.523,0-10,4.477-10,10v9.999H60.229
		L255.991,21.494z M23.439,167.006c0-5.28-0.333-10.079-1.082-15.001h467.268c-0.748,4.92-1.081,9.72-1.081,15.001
		c0,4.915,0.384,9.93,1.144,14.999h-23.906h-47.596h-76.399h-47.598h-76.397h-47.597H93.797H46.199H22.294
		C23.055,176.931,23.439,171.917,23.439,167.006z M84.041,202.004l5.705,229.987H50.248l5.706-229.987H84.041z M49.998,451.992h50
		c0.013,0,0.025-0.002,0.038-0.002h63.919c0.013,0,0.026,0.002,0.039,0.002h59.997c0.014,0,0.026-0.002,0.039-0.002h63.919
		c0.014,0,0.025,0.002,0.039,0.002h59.998c0.014,0,0.025-0.002,0.039-0.002h63.92c0.013,0,0.026,0.002,0.039,0.002h49.998v9.999
		H49.998V451.992z M491.982,491.99H20V481.99h19.998h431.983h20V491.99z"/>
	<path style="fill:#000001;" d="M255.995,72.243c5.523,0,10-4.478,10-10v-0.236c0-5.522-4.477-10-10-10c-5.523,0-10,4.478-10,10
		v0.236C245.996,67.766,250.473,72.243,255.995,72.243z"/>
</g>
<g>
</g>
<g>
</g>
<g>
</g>
<g>
</g>
<g>
</g>
<g>
</g>
<g>
</g>
<g>
</g>
<g>
</g>
<g>
</g>
<g>
</g>
<g>
</g>
<g>
</g>
<g>
</g>
<g>
</g>
</svg>
