<?xml version="1.0" encoding="iso-8859-1"?>
<!-- Generator: Adobe Illustrator 19.0.0, SVG Export Plug-In . SVG Version: 6.00 Build 0)  -->
<svg version="1.1" id="Capa_1" xmlns="http://www.w3.org/2000/svg" xmlns:xlink="http://www.w3.org/1999/xlink" x="0px" y="0px"
	 viewBox="0 0 512.002 512.002" style="enable-background:new 0 0 512.002 512.002;" xml:space="preserve">
<g>
	<path style="fill:#FF9B4B;" d="M89.999,256.002c0-91.68,74.321-166,166.002-166c91.68,0,166,74.32,166,166
		c0,30.44-8.195,58.967-22.504,83.492c-9.619,16.516-22.016,31.213-36.542,43.465C334.067,407.32,296.748,422,256.001,422
		c-40.749,0-78.068-14.68-106.947-39.049c-14.535-12.244-26.93-26.941-36.557-43.453C98.194,314.969,89.999,286.441,89.999,256.002
		L89.999,256.002z M256.001,10c-135.862,0-246,110.139-246,246.002s110.138,246,246,246s245.998-110.137,245.998-246
		S391.863,10,256.001,10z"/>
	<path style="fill:#FFBA50;" d="M256.001,90.002c-91.681,0-166.002,74.32-166.002,166c0,30.44,8.195,58.967,22.506,83.492
		l29.602-29.6L256.001,196l113.895,113.895l29.602,29.6c14.309-24.525,22.504-53.053,22.504-83.492
		C422.001,164.322,347.681,90.002,256.001,90.002z"/>
	<path style="fill:#EE4A4D;" d="M256.001,196L142.107,309.895l-29.61,29.603c9.627,16.512,22.021,31.209,36.557,43.453
		l106.947-106.947l106.948,106.947c14.532-12.244,26.929-26.941,36.548-43.457l-29.602-29.6L256.001,196z"/>
	<path style="fill:#FFBA50;" d="M256.001,276.004L149.054,382.951C177.933,407.32,215.252,422,256.001,422
		c40.747,0,78.066-14.68,106.948-39.049L256.001,276.004z"/>
</g>
<g>
	<path style="fill:#000001;" d="M256.001,0c-141.159,0-256,114.842-256,256.002c0,141.158,114.841,256,256,256s256-114.842,256-256
		C512.001,114.842,397.16,0,256.001,0z M256.001,492.002c-130.131,0-236-105.869-236-236C20.001,125.869,125.87,20,256.001,20
		s236,105.869,236,236.002C492.001,386.133,386.132,492.002,256.001,492.002z"/>
	<path style="fill:#000001;" d="M256.001,65c8.262,0,15-6.736,15-14.998c0-8.264-6.738-15.002-15-15.002
		c-8.262,0-15,6.738-15,15.002C241.001,58.264,247.739,65,256.001,65z"/>
	<circle style="fill:#000001;" cx="153" cy="77.6" r="15"/>
	<path style="fill:#000001;" d="M70.099,165.992c7.173,4.143,16.347,1.684,20.49-5.49c4.143-7.174,1.684-16.348-5.49-20.492
		c-7.174-4.143-16.348-1.682-20.49,5.492C60.465,152.674,62.925,161.848,70.099,165.992z"/>
	<circle style="fill:#000001;" cx="49.999" cy="256" r="14.999"/>
	<circle style="fill:#000001;" cx="77.6" cy="359" r="15"/>
	<path style="fill:#000001;" d="M160.499,421.414c-7.174-4.141-16.348-1.684-20.489,5.49c-4.142,7.174-1.685,16.35,5.489,20.486
		c7.176,4.147,16.35,1.686,20.491-5.488C170.133,434.728,167.673,425.557,160.499,421.414z"/>
	<path style="fill:#000001;" d="M256.001,447c-8.284,0-15,6.719-15,15.004c0,8.283,6.716,14.998,15,14.998
		c8.283,0,14.998-6.715,14.998-14.998C270.999,453.719,264.284,447,256.001,447z"/>
	<path style="fill:#000001;" d="M351.501,421.414c-7.174,4.143-9.634,13.314-5.491,20.488c4.145,7.174,13.317,9.635,20.491,5.488
		c7.174-4.137,9.634-13.313,5.491-20.486C367.849,419.73,358.675,417.273,351.501,421.414z"/>
	<circle style="fill:#000001;" cx="434.4" cy="359" r="15"/>
	<circle style="fill:#000001;" cx="462" cy="256" r="14.999"/>
	<path style="fill:#000001;" d="M441.902,165.992c7.173-4.145,9.634-13.318,5.489-20.49c-4.141-7.174-13.314-9.635-20.49-5.492
		c-7.174,4.145-9.631,13.318-5.488,20.492C425.555,167.676,434.728,170.135,441.902,165.992z"/>
	<circle style="fill:#000001;" cx="359" cy="77.6" r="15"/>
	<path style="fill:#000001;" d="M408.579,343.658c14.895-25.824,23.424-55.764,23.424-87.656c0-97.047-78.955-176-176.002-176
		s-176,78.953-176,176c0,31.891,8.527,61.826,23.42,87.65c0.285,0.623,0.639,1.223,1.061,1.791
		c9.923,16.746,22.539,31.715,37.253,44.305c0.084,0.09,0.159,0.186,0.247,0.274c0.51,0.51,1.062,0.949,1.643,1.324
		C174.13,416.719,213.313,432,256.001,432c42.689,0,81.873-15.281,112.381-40.656c0.58-0.375,1.131-0.814,1.639-1.322
		c0.087-0.086,0.162-0.182,0.244-0.27c14.719-12.592,27.338-27.566,37.263-44.316C407.944,344.873,408.294,344.277,408.579,343.658z
		 M256.001,100.002c86.02,0,156.002,69.981,156.002,156c0,23.893-5.406,46.545-15.049,66.807l-15.152-15.152
		c6.685-16.324,10.2-34.037,10.2-51.654c0-1.549-0.024-3.086-0.074-4.572c-0.183-5.52-4.794-9.85-10.326-9.662
		c-5.521,0.182-9.847,4.805-9.663,10.326c0.042,1.266,0.064,2.58,0.064,3.908c0,12.199-1.983,24.449-5.776,36.078L263.071,188.928
		c-3.904-3.904-10.236-3.904-14.141,0L145.776,292.08c-3.795-11.631-5.778-23.881-5.778-36.078c0-1.279,0.022-2.594,0.065-3.908
		c0.184-5.521-4.143-10.145-9.662-10.326c-5.502-0.178-10.144,4.143-10.326,9.662c-0.051,1.535-0.077,3.072-0.077,4.572
		c0,17.613,3.515,35.328,10.202,51.654l-15.15,15.15c-9.643-20.262-15.049-42.912-15.049-66.805
		C100.001,169.982,169.982,100.002,256.001,100.002z M164.142,382.004l91.859-91.857l91.859,91.857
		C322.074,400.853,290.317,412,256.001,412S189.929,400.853,164.142,382.004z M363.287,369.147L263.071,268.934
		c-3.904-3.904-10.236-3.904-14.141,0L148.716,369.147c-8.892-8.436-16.789-17.906-23.506-28.215l130.791-130.791l130.792,130.791
		C380.075,351.24,372.179,360.711,363.287,369.147z"/>
	<path style="fill:#000001;" d="M131.634,233.178c0.879,0.238,1.76,0.352,2.629,0.352c4.401,0,8.434-2.928,9.644-7.381
		c0.003-0.01,0.011-0.037,0.018-0.064c1.468-5.244-1.538-10.717-6.778-12.277c-5.293-1.576-10.861,1.439-12.437,6.732
		c-0.027,0.094-0.08,0.283-0.107,0.385C123.166,226.248,126.311,231.73,131.634,233.178z"/>
	<path style="fill:#000001;" d="M377.735,233.529c0.736,0,1.485-0.082,2.234-0.254c5.385-1.229,8.753-6.59,7.523-11.975
		c-0.058-0.254-0.13-0.529-0.199-0.762c-1.574-5.293-7.142-8.307-12.438-6.732c-5.195,1.547-8.195,6.943-6.814,12.146
		C369.173,230.479,373.239,233.529,377.735,233.529z"/>
</g>
<g>
</g>
<g>
</g>
<g>
</g>
<g>
</g>
<g>
</g>
<g>
</g>
<g>
</g>
<g>
</g>
<g>
</g>
<g>
</g>
<g>
</g>
<g>
</g>
<g>
</g>
<g>
</g>
<g>
</g>
</svg>
