<?xml version="1.0" encoding="iso-8859-1"?>
<!-- Generator: Adobe Illustrator 19.0.0, SVG Export Plug-In . SVG Version: 6.00 Build 0)  -->
<svg version="1.1" id="Capa_1" xmlns="http://www.w3.org/2000/svg" xmlns:xlink="http://www.w3.org/1999/xlink" x="0px" y="0px"
	 viewBox="0 0 512.002 512.002" style="enable-background:new 0 0 512.002 512.002;" xml:space="preserve">
<g>
	<path style="fill:#F1DFC4;" d="M10.002,87.343c28.686,107.064,119.445,247.742,204.551,224.94c1.158-0.313,2.301-0.648,3.426-1.023
		c39.883-12.824,62.148-58.33,71.25-113.84c9.57-58.471,4.518-128.043-10-182.219c-36.939-9.896-95.236-4.764-142.184,7.816
		C90.096,35.596,37.039,60.3,10.002,87.343z"/>
	<path style="fill:#C7A87E;" d="M289.217,197.419c-9.074,55.518-31.35,101.027-71.238,113.84
		c-1.723,86.734,20.289,172.428,79.471,188.285c85.107,22.805,175.863-117.875,204.553-224.941
		c-27.043-27.041-80.094-51.744-127.047-64.322C348.051,203.069,317.424,198.307,289.217,197.419z"/>
</g>
<g>
	<path style="fill:#000001;" d="M334.045,129.911c-5.522,0-10,4.451-10,9.973l-0.002,0.111c-0.174,5.52,4.16,10.135,9.68,10.309
		c0.107,0.004,0.215,0.006,0.32,0.006c5.377,0,9.818-4.273,9.99-9.686c0.006-0.229,0.012-0.459,0.012-0.688
		C344.045,134.415,339.568,129.911,334.045,129.911z"/>
	<path style="fill:#000001;" d="M323.724,113.278c0.211,5.385,4.643,9.607,9.984,9.607c0.133,0,0.266-0.002,0.4-0.008
		c5.518-0.217,9.816-4.865,9.6-10.385c-0.686-17.443-2.217-34.924-4.549-51.955c-0.75-5.471-5.789-9.301-11.266-8.551
		c-5.471,0.75-9.299,5.793-8.549,11.266C321.59,79.645,323.064,96.477,323.724,113.278z"/>
	<path style="fill:#000001;" d="M152.365,168.682c4.783-2.762,6.422-8.877,3.66-13.66c-9.267-16.049-26.535-26.018-45.064-26.018
		s-35.797,9.969-45.064,26.018c-2.762,4.781-1.123,10.898,3.658,13.66c4.785,2.762,10.9,1.123,13.662-3.658
		c5.705-9.881,16.338-16.02,27.744-16.02c11.408,0,22.039,6.137,27.744,16.02c1.852,3.207,5.213,5,8.67,5
		C149.07,170.024,150.791,169.593,152.365,168.682z"/>
	<path style="fill:#000001;" d="M198.346,154.704c5.523,0,10-4.479,10-10c0-11.41,6.137-22.041,16.016-27.746
		c9.881-5.703,22.158-5.703,32.041,0.002c4.785,2.762,10.898,1.119,13.66-3.662c2.76-4.783,1.121-10.9-3.662-13.66
		c-16.051-9.264-35.99-9.266-52.039,0c-16.047,9.266-26.016,26.535-26.016,45.066C188.346,150.225,192.824,154.704,198.346,154.704z
		"/>
	<path style="fill:#000001;" d="M235.869,217.723c1.43-5.336-1.736-10.818-7.07-12.248c-5.338-1.43-10.818,1.736-12.248,7.07
		c-2.953,11.02-11.633,19.699-22.654,22.65c-11.02,2.953-22.875-0.223-30.945-8.289c-3.904-3.904-10.236-3.906-14.141,0
		c-3.906,3.906-3.906,10.236,0,14.143c9.867,9.865,23.223,15.229,36.861,15.229c4.473,0,8.98-0.578,13.4-1.764
		C216.972,249.721,231.072,235.622,235.869,217.723z"/>
	<path style="fill:#000001;" d="M509.074,267.532c-31.938-31.934-90.814-56.004-131.529-66.912
		c-24.733-6.627-51.605-11.033-76.834-12.654c7.119-54.744,2.736-121.012-11.824-175.354c-0.924-3.451-3.619-6.147-7.07-7.07
		c-13.721-3.678-30.408-5.541-49.602-5.541c-30.451,0-66.084,4.869-97.758,13.357C93.738,24.268,34.861,48.339,2.929,80.268
		c-2.525,2.527-3.512,6.209-2.588,9.66c14.188,52.947,42.152,110.633,74.807,154.313c27.451,36.719,70.678,80.49,120.713,80.498
		c0.004,0,0.008,0,0.012,0c4.035,0,8.059-0.309,12.041-0.898c0.277,42.738,6.289,81.121,17.582,111.613
		c14.842,40.065,38.826,65.566,69.365,73.75c6.926,1.855,14.086,2.797,21.277,2.797c0.004,0,0.002,0,0.006,0
		c50.033,0,93.26-43.77,120.711-80.488c32.65-43.676,60.615-101.365,74.807-154.32C512.586,273.741,511.599,270.057,509.074,267.532
		z M195.863,304.739c-32.578-0.006-69.76-25.744-104.697-72.475c-30.039-40.182-55.93-92.775-69.924-141.799
		C46.158,68.08,92.697,45.252,139.633,32.676C169.692,24.621,203.438,20,232.215,20c14.84,0,27.871,1.184,38.84,3.521
		c13.451,53.719,16.781,118.369,8.629,170.266c-0.094,0.596-0.191,1.197-0.291,1.807c-0.012,0.07-0.031,0.137-0.043,0.209
		c-5.502,33.596-21.189,92.031-64.432,105.934c-0.033,0.012-0.063,0.025-0.096,0.035c-0.941,0.303-1.891,0.592-2.857,0.85
		c-5.242,1.404-10.656,2.117-16.092,2.117C195.871,304.739,195.867,304.739,195.863,304.739z M420.836,419.538
		c-34.936,46.73-72.117,72.465-104.695,72.463c-5.445,0-10.863-0.711-16.104-2.115c-53.818-14.42-72.482-96.855-72.143-171.652
		c0.111-0.047,0.221-0.102,0.332-0.148c0.914-0.391,1.82-0.801,2.721-1.225c0.26-0.123,0.518-0.248,0.775-0.373
		c0.938-0.453,1.867-0.92,2.789-1.41c0.141-0.074,0.281-0.154,0.422-0.23c3.508-1.893,6.902-4.033,10.17-6.451
		c9.789,11.596,24.35,18.525,39.793,18.525c18.533,0,35.801-9.971,45.066-26.02c2.76-4.783,1.121-10.898-3.662-13.66
		c-4.783-2.76-10.9-1.123-13.66,3.662c-5.703,9.879-16.334,16.017-27.744,16.017c-9.818,0-19.051-4.555-25.072-12.119
		c1.418-1.602,2.809-3.256,4.166-4.982c0.023-0.027,0.047-0.057,0.07-0.084c0.695-0.889,1.379-1.803,2.059-2.723
		c0.225-0.305,0.451-0.605,0.674-0.912c0.631-0.869,1.25-1.756,1.865-2.652c0.254-0.369,0.506-0.74,0.756-1.115
		c0.605-0.902,1.205-1.814,1.795-2.744c0.228-0.359,0.453-0.725,0.678-1.086c0.43-0.691,0.869-1.365,1.291-2.07
		c10.957-18.32,19.129-41.371,24.355-68.629c24.471,1.432,50.715,5.672,74.834,12.135c46.936,12.576,93.477,35.402,118.395,57.791
		C476.765,326.761,450.875,379.356,420.836,419.538z"/>
	<path style="fill:#000001;" d="M368.613,311.259c0,18.533,9.971,35.801,26.02,45.064c8.025,4.635,17.021,6.951,26.018,6.951
		c8.996,0,17.992-2.316,26.018-6.951c4.781-2.762,6.42-8.879,3.658-13.66c-2.762-4.783-8.877-6.422-13.66-3.66
		c-9.879,5.705-22.152,5.707-32.033,0c-9.881-5.703-16.02-16.334-16.02-27.744c0-5.523-4.477-10-10-10
		C373.092,301.259,368.613,305.735,368.613,311.259z"/>
	<path style="fill:#000001;" d="M323.543,402.157c-17.9-4.797-37.158,0.365-50.262,13.469c-3.906,3.904-3.906,10.236-0.002,14.141
		c3.904,3.906,10.238,3.908,14.143,0.002c8.068-8.066,19.928-11.244,30.945-8.293c11.02,2.953,19.701,11.635,22.652,22.654
		c1.197,4.469,5.238,7.416,9.654,7.416c0.855-0.002,1.727-0.111,2.594-0.344c5.334-1.43,8.5-6.912,7.07-12.248
		C355.543,421.054,341.445,406.954,323.543,402.157z"/>
	<path style="fill:#000001;" d="M183.826,414.434c5.441-0.943,9.088-6.119,8.146-11.56c-2.875-16.594-4.959-33.361-6.191-49.836
		c-0.41-5.51-5.209-9.641-10.717-9.227c-5.508,0.412-9.639,5.211-9.227,10.719c1.281,17.115,3.443,34.529,6.428,51.758
		c0.842,4.865,5.066,8.295,9.842,8.295C182.674,414.583,183.248,414.534,183.826,414.434z"/>
	<path style="fill:#000001;" d="M197.234,428.987c-1.166-5.396-6.49-8.834-11.887-7.662c-5.398,1.166-8.828,6.486-7.662,11.885
		c0.039,0.184,0.082,0.365,0.123,0.547c1.086,4.604,5.191,7.707,9.725,7.707c0.76,0,1.533-0.088,2.305-0.27
		c5.375-1.268,8.705-6.652,7.438-12.027L197.234,428.987z"/>
</g>
<g>
</g>
<g>
</g>
<g>
</g>
<g>
</g>
<g>
</g>
<g>
</g>
<g>
</g>
<g>
</g>
<g>
</g>
<g>
</g>
<g>
</g>
<g>
</g>
<g>
</g>
<g>
</g>
<g>
</g>
</svg>
